<svg id="Ebene_1" data-name="Ebene 1" xmlns="http://www.w3.org/2000/svg" viewBox="0 0 100 100">
    <defs>
        <style>.cls-4{fill:#738290;opacity:.6}.cls-6{fill:#fff}</style>
    </defs>
    <path d="M66 1H15c-1.42 0-2.58 1.15-2.58 3.39v93.34c0 .61 1.16 1.76 2.58 1.76h70.43c1.42 0 2.57-1.15 2.57-1.76V23.82c0-1.22-.16-1.61-.45-1.9L67.08 1.45A1.54 1.54 0 0 0 66 1z"
          fill="#eff2f5"/>
    <path fill="#738290" d="M66.89 1.27v20.84h20.84L66.89 1.27z"/>
    <path d="M85.43 99.49H15a2.58 2.58 0 0 1-2.58-2.57V69.59H88v27.33a2.57 2.57 0 0 1-2.57 2.57z" fill="#0071bc"/>
    <circle class="cls-4" cx="49.31" cy="37.93" r="21.1"/>
    <circle cx="49.31" cy="37.93" r="5.28" fill="#e9e9e0"/>
    <path class="cls-4"
          d="M45.58 34.2a4.88 4.88 0 0 1 .75-.61l-4.16-15.5a20.93 20.93 0 0 0-12.7 12.71L45 35a6.07 6.07 0 0 1 .58-.8zM53.83 42.31l4 14.91a20.92 20.92 0 0 0 6.4-4.36 21.18 21.18 0 0 0 4.83-7.52l-14.41-3.86a.67.67 0 0 0-.82.83z"/>
    <g>
        <path class="cls-6"
              d="M28.88 78.67h5a9.85 9.85 0 0 1 2.58.26 4.58 4.58 0 0 1 2.05 1.25 5.86 5.86 0 0 1 1.3 2.21 9.89 9.89 0 0 1 .45 3.21 8.92 8.92 0 0 1-.42 2.9 6 6 0 0 1-1.46 2.4 4.83 4.83 0 0 1-1.91 1.1 8 8 0 0 1-2.43.29h-5.16zM31.62 81v9h2.05a7.25 7.25 0 0 0 1.66-.13 2.45 2.45 0 0 0 1.11-.57 2.73 2.73 0 0 0 .72-1.3 8.7 8.7 0 0 0 .28-2.49 8 8 0 0 0-.28-2.42 3.05 3.05 0 0 0-.78-1.32 2.64 2.64 0 0 0-1.27-.64 12 12 0 0 0-2.25-.13zM42.57 92.27v-13.6h4.11L49.15 88l2.44-9.28h4.12v13.6h-2.55V81.56l-2.7 10.71h-2.65l-2.69-10.71v10.71zM64.76 87.27V85h5.92v5.4a7.74 7.74 0 0 1-2.5 1.47 9.18 9.18 0 0 1-3.32.63 7.42 7.42 0 0 1-3.72-.89 5.68 5.68 0 0 1-2.38-2.56 8.32 8.32 0 0 1-.8-3.63 7.86 7.86 0 0 1 .89-3.77 6 6 0 0 1 2.61-2.53 6.92 6.92 0 0 1 3.25-.68 6.49 6.49 0 0 1 4 1.06 4.79 4.79 0 0 1 1.83 2.94l-2.76.56a2.93 2.93 0 0 0-1.08-1.58 3.26 3.26 0 0 0-2-.58 3.72 3.72 0 0 0-2.86 1.14 4.79 4.79 0 0 0-1.06 3.38A5.33 5.33 0 0 0 61.87 89a3.59 3.59 0 0 0 2.82 1.21 4.88 4.88 0 0 0 1.73-.34 6.2 6.2 0 0 0 1.49-.87v-1.73z"/>
    </g>
</svg>