<svg id="Ebene_1" data-name="Ebene 1" xmlns="http://www.w3.org/2000/svg" viewBox="0 0 100 100">
    <defs>
        <style>.cls-2{fill:#738290}.cls-4{fill:#fff}</style>
    </defs>
    <path d="M66.51 0H14.68c-1.44 0-2.61 1.17-2.61 3.44v94.77c0 .62 1.17 1.79 2.61 1.79h71.56c1.45 0 2.62-1.17 2.62-1.79v-75c0-1.24-.17-1.64-.46-1.93L67.62.46A1.59 1.59 0 0 0 66.51 0z"
          fill="#eff2f5"/>
    <path class="cls-2"
          d="M67.43.27v21.16h21.16L67.43.27zM33.5 23.21H22.79a1.79 1.79 0 1 1 0-3.57H33.5a1.79 1.79 0 1 1 0 3.57zM37.21 58.93H22.93a1.79 1.79 0 1 1 0-3.57h14.28a1.79 1.79 0 1 1 0 3.57zM62.07 41.07H22.79a1.79 1.79 0 1 1 0-3.57h39.28a1.79 1.79 0 1 1 0 3.57zM62.07 50.07H22.79a1.79 1.79 0 1 1 0-3.57h39.28a1.79 1.79 0 1 1 0 3.57zM62.07 32.07H22.79a1.79 1.79 0 1 1 0-3.57h39.28a1.79 1.79 0 1 1 0 3.57z"/>
    <path d="M86.24 100H14.68a2.61 2.61 0 0 1-2.61-2.61V69.64h76.79v27.75a2.61 2.61 0 0 1-2.62 2.61z" fill="#0071bc"/>
    <g>
        <path class="cls-4"
              d="M30.93 78.67h5a10 10 0 0 1 2.59.26 4.63 4.63 0 0 1 2.05 1.25 6 6 0 0 1 1.3 2.21 10.19 10.19 0 0 1 .44 3.21 8.92 8.92 0 0 1-.42 2.9 6 6 0 0 1-1.45 2.4 4.9 4.9 0 0 1-1.91 1.1 8.06 8.06 0 0 1-2.43.29h-5.17zM33.68 81v9h2a7.31 7.31 0 0 0 1.66-.13 2.55 2.55 0 0 0 1.11-.57 2.81 2.81 0 0 0 .76-1.3 8.7 8.7 0 0 0 .28-2.49 8 8 0 0 0-.28-2.42 3.14 3.14 0 0 0-.77-1.32 2.68 2.68 0 0 0-1.28-.64 12 12 0 0 0-2.25-.13zM44.1 85.55a8.7 8.7 0 0 1 .62-3.48A6.45 6.45 0 0 1 46 80.2a5.23 5.23 0 0 1 1.75-1.2 7.43 7.43 0 0 1 2.93-.54 6.4 6.4 0 0 1 4.81 1.86 7.19 7.19 0 0 1 1.8 5.19 7.08 7.08 0 0 1-1.79 5.15 6.31 6.31 0 0 1-4.78 1.86 6.4 6.4 0 0 1-4.83-1.85 7 7 0 0 1-1.79-5.12zm2.83-.09A5.09 5.09 0 0 0 48 89a3.65 3.65 0 0 0 5.4 0 6.43 6.43 0 0 0 0-7 3.8 3.8 0 0 0-5.4 0 5.16 5.16 0 0 0-1.07 3.46zM68.14 87.27l2.66.85a5.91 5.91 0 0 1-2 3.3 6.42 6.42 0 0 1-8.07-.77A7.08 7.08 0 0 1 59 85.59a7.42 7.42 0 0 1 1.75-5.27 6 6 0 0 1 4.61-1.88 5.69 5.69 0 0 1 4.06 1.47 5.5 5.5 0 0 1 1.39 2.51l-2.72.65a2.81 2.81 0 0 0-2.87-2.28 3.09 3.09 0 0 0-2.45 1.08 5.31 5.31 0 0 0-.94 3.52 5.75 5.75 0 0 0 .92 3.67 3 3 0 0 0 2.42 1.1 2.77 2.77 0 0 0 1.88-.7 4 4 0 0 0 1.09-2.19z"/>
    </g>
</svg>