<svg id="Ebene_1" data-name="Ebene 1" xmlns="http://www.w3.org/2000/svg" viewBox="0 0 100 100">
    <defs>
        <style>.cls-2{fill:#738290}.cls-4{fill:none}.cls-5{fill:#fff}</style>
    </defs>
    <path d="M65 1H14c-1.42 0-2.58 1.15-2.58 3.39v93.34c0 .61 1.16 1.76 2.58 1.76h70.43c1.42 0 2.57-1.15 2.57-1.76V23.82c0-1.22-.16-1.61-.45-1.9L66.08 1.45A1.54 1.54 0 0 0 65 1z"
          fill="#eff2f5"/>
    <path class="cls-2" d="M65.89 1.27v20.84h20.84L65.89 1.27z"/>
    <path d="M84.43 99.49H14a2.58 2.58 0 0 1-2.58-2.57V69.59H87v27.33a2.57 2.57 0 0 1-2.57 2.57z" fill="#0071bc"/>
    <path class="cls-4" d="M29.64 12.5l21 7.17-7.22 20.95-21-7.17z"/>
    <path class="cls-2"
          d="M42.48 29.51a5.81 5.81 0 0 0 .33-.8 5.2 5.2 0 0 0 .22-.84l2.24-.77a.46.46 0 0 0 .29-.5l-.68-3.48a.45.45 0 0 0-.45-.36l-2.37.12a6.69 6.69 0 0 0-1.14-1.3l.45-2.33a.43.43 0 0 0-.3-.49l-3.35-1.15a.44.44 0 0 0-.53.21l-1.07 2.12a6.4 6.4 0 0 0-1.7.33l-1.79-1.55a.44.44 0 0 0-.58 0l-2.67 2.33a.43.43 0 0 0-.08.57l1.3 2a6.33 6.33 0 0 0-.36.79 6.07 6.07 0 0 0-.21.84l-2.25.75a.45.45 0 0 0-.28.5l.68 3.5a.45.45 0 0 0 .45.36l2.37-.12a6.64 6.64 0 0 0 1.13 1.3l-.44 2.33a.45.45 0 0 0 .29.5l3.36 1.14a.42.42 0 0 0 .53-.21l1.07-2.12a6.33 6.33 0 0 0 1.69-.33l1.8 1.55a.44.44 0 0 0 .58 0l2.67-2.33a.43.43 0 0 0 .08-.57zm-7 .19a3.32 3.32 0 1 1 4.22-2.06 3.32 3.32 0 0 1-4.25 2.06z"/>
    <g>
        <path class="cls-4" d="M54 20.54L79.46 46 54 71.46 28.54 46z"/>
        <path class="cls-2"
              d="M60.58 54.57a12.83 12.83 0 0 0 1.06-.93 8.91 8.91 0 0 0 .91-1.07l3.83.47a.74.74 0 0 0 .78-.52L68.65 47a.74.74 0 0 0-.39-.85l-3.56-1.56a10.14 10.14 0 0 0-.7-2.71l2.3-3.08a.74.74 0 0 0-.08-.95l-4.07-4.07a.7.7 0 0 0-.93-.06L58.14 36a11 11 0 0 0-2.71-.72l-1.52-3.55a.71.71 0 0 0-.85-.4l-5.56 1.52a.7.7 0 0 0-.53.78l.48 3.83a9.3 9.3 0 0 0-1.09.9 8.31 8.31 0 0 0-.91 1.07L41.62 39a.74.74 0 0 0-.78.52l-1.49 5.57a.74.74 0 0 0 .39.85l3.56 1.51a10.14 10.14 0 0 0 .7 2.67l-2.3 3.08a.75.75 0 0 0 .08.95l4.07 4.07a.69.69 0 0 0 .93.06L49.86 56a11 11 0 0 0 2.71.72l1.52 3.55a.71.71 0 0 0 .85.4l5.56-1.49a.7.7 0 0 0 .53-.78zm-10.4-4.75a5.4 5.4 0 1 1 7.64 0 5.42 5.42 0 0 1-7.64 0z"/>
    </g>
    <g>
        <path class="cls-5"
              d="M31 92.27v-13.6h10.12V81h-7.33v3h6.82v2.29h-6.82V90h7.59v2.29zM42.33 92.27l4.67-7.1-4.21-6.5H46L48.7 83l2.68-4.37h3.18l-4.23 6.61 4.64 7h-3.31l-3-4.7-3 4.7zM56.39 92.27v-13.6h10.08V81h-7.34v3H66v2.29h-6.87V90h7.6v2.29z"/>
    </g>
</svg>