<svg id="Ebene_1" data-name="Ebene 1" xmlns="http://www.w3.org/2000/svg" viewBox="0 0 100 100">
    <defs>
        <style>.cls-4{fill:#738290;opacity:.6}.cls-6{fill:#fff}</style>
    </defs>
    <path d="M66 1H15c-1.42 0-2.58 1.15-2.58 3.39v93.34c0 .61 1.16 1.76 2.58 1.76h70.43c1.42 0 2.57-1.15 2.57-1.76V23.82c0-1.22-.16-1.61-.45-1.9L67.08 1.45A1.54 1.54 0 0 0 66 1z"
          fill="#eff2f5"/>
    <path fill="#738290" d="M66.89 1.27v20.84h20.84L66.89 1.27z"/>
    <path d="M85.43 99.49H15a2.58 2.58 0 0 1-2.58-2.57V69.59H88v27.33a2.57 2.57 0 0 1-2.57 2.57z" fill="#0071bc"/>
    <circle class="cls-4" cx="49.31" cy="37.93" r="21.1"/>
    <circle cx="49.31" cy="37.93" r="5.28" fill="#e9e9e0"/>
    <path class="cls-4"
          d="M45.58 34.2a4.88 4.88 0 0 1 .75-.61l-4.16-15.5a20.93 20.93 0 0 0-12.7 12.71L45 35a6.07 6.07 0 0 1 .58-.8zM53.83 42.31l4 14.91a20.92 20.92 0 0 0 6.4-4.36 21.18 21.18 0 0 0 4.83-7.52l-14.41-3.86a.67.67 0 0 0-.82.83z"/>
    <g>
        <path class="cls-6"
              d="M34.6 92.27v-13.6h2.75v13.6zM39.27 87.85l2.67-.26a3.27 3.27 0 0 0 1 2 3 3 0 0 0 2 .63 3 3 0 0 0 2-.56 1.68 1.68 0 0 0 .67-1.31 1.27 1.27 0 0 0-.28-.82 2.27 2.27 0 0 0-1-.59c-.32-.11-1.06-.31-2.2-.6A7.42 7.42 0 0 1 41 85a3.56 3.56 0 0 1-1.25-2.74 3.43 3.43 0 0 1 .59-1.94A3.75 3.75 0 0 1 42 78.91a7 7 0 0 1 2.68-.47 5.76 5.76 0 0 1 3.86 1.12 4 4 0 0 1 1.36 3l-2.75.12a2.34 2.34 0 0 0-.76-1.51 2.78 2.78 0 0 0-1.74-.46 3.19 3.19 0 0 0-1.87.49 1 1 0 0 0-.44.85 1 1 0 0 0 .41.82 7.17 7.17 0 0 0 2.53.91 13.45 13.45 0 0 1 3 1 3.85 3.85 0 0 1 1.5 1.38 4.09 4.09 0 0 1 .55 2.17 4 4 0 0 1-.65 2.19A3.94 3.94 0 0 1 47.84 92a7.73 7.73 0 0 1-3 .49 5.86 5.86 0 0 1-4-1.19 5.18 5.18 0 0 1-1.57-3.45zM52.08 85.55a8.7 8.7 0 0 1 .62-3.48A6.26 6.26 0 0 1 54 80.2a5.19 5.19 0 0 1 1.72-1.2 7.49 7.49 0 0 1 2.94-.54 6.41 6.41 0 0 1 4.81 1.86 8.34 8.34 0 0 1 0 10.34 6.33 6.33 0 0 1-4.79 1.86 6.37 6.37 0 0 1-4.82-1.85 7 7 0 0 1-1.78-5.12zm2.83-.09A5 5 0 0 0 56 89a3.65 3.65 0 0 0 5.4 0 5.21 5.21 0 0 0 1-3.55 5.11 5.11 0 0 0-1-3.48A3.8 3.8 0 0 0 56 82a5.11 5.11 0 0 0-1.09 3.46z"/>
    </g>
</svg>