<svg id="Ebene_1" data-name="Ebene 1" xmlns="http://www.w3.org/2000/svg" viewBox="0 0 100 100">
    <defs>
        <style>.cls-6{fill:#fff}</style>
    </defs>
    <path d="M65.81 0H14c-1.45 0-2.62 1.17-2.62 3.44v94.77c0 .62 1.17 1.79 2.62 1.79h71.55c1.44 0 2.61-1.17 2.61-1.79v-75c0-1.24-.17-1.64-.46-1.93L66.92.46A1.57 1.57 0 0 0 65.81 0z"
          fill="#eff2f5"/>
    <path d="M85.55 100H14a2.61 2.61 0 0 1-2.62-2.61V69.64h76.78v27.75a2.61 2.61 0 0 1-2.61 2.61z" fill="#39b54a"/>
    <path fill="#738290" d="M66.73.27v21.16h21.16L66.73.27z"/>
    <circle cx="33.57" cy="25.77" r="8.16" fill="#f3d55b"/>
    <path fill="#49c770" opacity=".6" d="M11.38 69.64h76.78V50L70.3 33.04 51.55 53.57l-9.79-9.79-30.38 25.86z"/>
    <g>
        <path class="cls-6"
              d="M37 79.67h2.73v8.61a9.12 9.12 0 0 1-.29 2.6 3.69 3.69 0 0 1-1.45 1.9 4.8 4.8 0 0 1-2.77.72 4.08 4.08 0 0 1-3.09-1.12A4.64 4.64 0 0 1 31 89.07l2.59-.3a3.71 3.71 0 0 0 .34 1.65 1.49 1.49 0 0 0 1.36.74 1.51 1.51 0 0 0 1.3-.53 4.14 4.14 0 0 0 .41-2.17zM42.61 93.27v-13.6H47a15.61 15.61 0 0 1 3.27.21 3.53 3.53 0 0 1 2 1.33 4.23 4.23 0 0 1 .73 2.64 4.48 4.48 0 0 1-.43 2.15 3.71 3.71 0 0 1-1.15 1.34A4.24 4.24 0 0 1 50 88a15.68 15.68 0 0 1-2.85.19h-1.8v5.13zM45.35 82v3.86h1.51a7.24 7.24 0 0 0 2.14-.24 1.84 1.84 0 0 0 .85-.67 1.82 1.82 0 0 0 .32-1.06 1.76 1.76 0 0 0-.44-1.22 1.92 1.92 0 0 0-1.1-.61 13.69 13.69 0 0 0-2-.09zM61.61 88.27V86h5.92v5.4A7.74 7.74 0 0 1 65 92.87a9.22 9.22 0 0 1-3.32.63 7.42 7.42 0 0 1-3.68-.89 5.75 5.75 0 0 1-2.39-2.56 8.31 8.31 0 0 1-.79-3.63 7.75 7.75 0 0 1 .89-3.77 5.94 5.94 0 0 1 2.6-2.53 7 7 0 0 1 3.26-.68 6.49 6.49 0 0 1 4 1.06 4.79 4.79 0 0 1 1.83 2.94l-2.78.56a2.83 2.83 0 0 0-1.08-1.58 3.25 3.25 0 0 0-2-.58 3.72 3.72 0 0 0-2.86 1.14 4.79 4.79 0 0 0-1.06 3.38A5.38 5.38 0 0 0 58.71 90a3.62 3.62 0 0 0 2.82 1.21 4.84 4.84 0 0 0 1.73-.34 6 6 0 0 0 1.49-.87v-1.73z"/>
    </g>
</svg>