<svg id="Ebene_1" data-name="Ebene 1" xmlns="http://www.w3.org/2000/svg" viewBox="0 0 100 100">
    <defs>
        <style>.cls-2{fill:#738290}.cls-4{fill:none}.cls-5{fill:#fff}</style>
    </defs>
    <path d="M66 1H15c-1.42 0-2.58 1.15-2.58 3.39v93.34c0 .61 1.16 1.76 2.58 1.76h70.43c1.42 0 2.57-1.15 2.57-1.76V23.82c0-1.22-.16-1.61-.45-1.9L67.08 1.45A1.54 1.54 0 0 0 66 1z"
          fill="#eff2f5"/>
    <path class="cls-2" d="M66.89 1.27v20.84h20.84L66.89 1.27z"/>
    <path d="M85.43 99.49H15a2.58 2.58 0 0 1-2.58-2.57V69.59H88v27.33a2.57 2.57 0 0 1-2.57 2.57z" fill="#0071bc"/>
    <path class="cls-4" d="M30.64 12.5l21 7.17-7.22 20.95-21-7.17z"/>
    <path class="cls-2"
          d="M43.48 29.51a5.81 5.81 0 0 0 .33-.8 5.2 5.2 0 0 0 .22-.84l2.24-.77a.46.46 0 0 0 .29-.5l-.68-3.48a.45.45 0 0 0-.45-.36l-2.37.12a6.69 6.69 0 0 0-1.14-1.3l.45-2.33a.43.43 0 0 0-.3-.49l-3.35-1.15a.44.44 0 0 0-.53.21l-1.07 2.12a6.4 6.4 0 0 0-1.7.33l-1.79-1.55a.44.44 0 0 0-.58 0l-2.67 2.33a.43.43 0 0 0-.08.57l1.3 2a6.33 6.33 0 0 0-.36.79 6.07 6.07 0 0 0-.21.84l-2.25.75a.45.45 0 0 0-.28.5l.68 3.5a.45.45 0 0 0 .45.36l2.37-.12a6.64 6.64 0 0 0 1.13 1.3l-.44 2.33a.45.45 0 0 0 .29.5l3.36 1.14a.42.42 0 0 0 .53-.21l1.07-2.12a6.33 6.33 0 0 0 1.69-.33l1.8 1.55a.44.44 0 0 0 .58 0l2.67-2.33a.43.43 0 0 0 .08-.57zm-7 .19a3.32 3.32 0 1 1 4.22-2.06 3.32 3.32 0 0 1-4.25 2.06z"/>
    <g>
        <path class="cls-4" d="M55 20.54L80.46 46 55 71.46 29.54 46z"/>
        <path class="cls-2"
              d="M61.58 54.57a12.83 12.83 0 0 0 1.06-.93 8.91 8.91 0 0 0 .91-1.07l3.83.47a.74.74 0 0 0 .78-.52L69.65 47a.74.74 0 0 0-.39-.85l-3.56-1.56a10.14 10.14 0 0 0-.7-2.71l2.3-3.08a.74.74 0 0 0-.08-.95l-4.07-4.07a.7.7 0 0 0-.93-.06L59.14 36a11 11 0 0 0-2.71-.72l-1.52-3.55a.71.71 0 0 0-.85-.4l-5.56 1.52a.7.7 0 0 0-.53.78l.48 3.83a9.3 9.3 0 0 0-1.09.9 8.31 8.31 0 0 0-.91 1.07L42.62 39a.74.74 0 0 0-.78.52l-1.49 5.57a.74.74 0 0 0 .39.85l3.56 1.51a10.14 10.14 0 0 0 .7 2.67l-2.3 3.08a.75.75 0 0 0 .08.95l4.07 4.07a.69.69 0 0 0 .93.06L50.86 56a11 11 0 0 0 2.71.72l1.52 3.55a.71.71 0 0 0 .85.4l5.56-1.49a.7.7 0 0 0 .53-.78zm-10.4-4.75a5.4 5.4 0 1 1 7.64 0 5.42 5.42 0 0 1-7.64 0z"/>
    </g>
    <g>
        <path class="cls-5"
              d="M34.12 92.27v-13.6h4.11L40.7 88l2.44-9.28h4.12v13.6h-2.55V81.56L42 92.27h-2.64l-2.69-10.71v10.71zM49.29 87.85l2.71-.26a3.27 3.27 0 0 0 1 2 3 3 0 0 0 2 .63 3 3 0 0 0 2-.56 1.65 1.65 0 0 0 .67-1.31 1.22 1.22 0 0 0-.28-.82 2.27 2.27 0 0 0-1-.59c-.32-.11-1-.31-2.2-.6A7.37 7.37 0 0 1 51 85a3.56 3.56 0 0 1-.67-4.68 3.73 3.73 0 0 1 1.7-1.38 6.91 6.91 0 0 1 2.68-.47 5.73 5.73 0 0 1 3.85 1.12 4 4 0 0 1 1.36 3l-2.75.12a2.34 2.34 0 0 0-.75-1.51 2.82 2.82 0 0 0-1.74-.46 3.23 3.23 0 0 0-1.88.49 1 1 0 0 0-.43.85 1 1 0 0 0 .41.82 7 7 0 0 0 2.52.91 13.27 13.27 0 0 1 3 1 3.88 3.88 0 0 1 1.51 1.38 4.09 4.09 0 0 1 .54 2.17 4 4 0 0 1-.65 2.19A3.85 3.85 0 0 1 57.86 92a7.73 7.73 0 0 1-3 .49 5.86 5.86 0 0 1-4-1.19 5.18 5.18 0 0 1-1.57-3.45zM62.58 92.27v-13.6h2.74v13.6z"/>
    </g>
</svg>