<svg id="Ebene_1" data-name="Ebene 1" xmlns="http://www.w3.org/2000/svg" viewBox="0 0 100 100">
    <defs>
        <style>.cls-3{fill:#cc4b4c}.cls-4{fill:#fff}</style>
    </defs>
    <path d="M66 0H14.22c-1.44 0-2.61 1.17-2.61 3.44v94.77c0 .62 1.17 1.79 2.61 1.79h71.56c1.44 0 2.61-1.17 2.61-1.79v-75c0-1.24-.16-1.64-.46-1.93L67.16.46A1.62 1.62 0 0 0 66 0z"
          fill="#eff2f5"/>
    <path fill="#738290" d="M66.96.27v21.16h21.16L66.96.27z"/>
    <path class="cls-3"
          d="M34.85 59.51a2.86 2.86 0 0 1-1.73-.58 4.28 4.28 0 0 1-2-4c.32-2.91 3.92-6 10.69-9.05a119.9 119.9 0 0 0 6.76-19.2c-1.78-3.87-3.51-8.91-2.25-11.86a3.44 3.44 0 0 1 2-2.17 9.21 9.21 0 0 1 1.82-.3c.9 0 1.69 1.15 2.25 1.87s1.72 2.09-.67 12.15a57.14 57.14 0 0 0 9.09 13.5 35 35 0 0 1 6-.64c2.79 0 4.49.65 5.18 2 .57 1.11.34 2.41-.7 3.86a4.74 4.74 0 0 1-4 2.13c-2.17 0-4.7-1.37-7.52-4.08a85.88 85.88 0 0 0-15.77 5 50.44 50.44 0 0 1-4.25 7.59c-1.75 2.58-3.34 3.78-4.9 3.78zm4.75-9.16c-3.82 2.15-5.37 3.91-5.48 4.9 0 .17-.07.6.77 1.24.26-.08 1.82-.79 4.71-6.14zM64 42.42c1.46 1.12 1.81 1.69 2.76 1.69a2.69 2.69 0 0 0 2.16-.79 3.07 3.07 0 0 0 .42-.74c-.22-.12-.52-.35-2.1-.35a26.45 26.45 0 0 0-3.24.19zM50.61 30.67a125.3 125.3 0 0 1-4.77 13.5 89.67 89.67 0 0 1 11.6-3.6 61.64 61.64 0 0 1-6.83-9.9zm-1.08-15.11a4.27 4.27 0 0 0 .17 5.74c1.69-3.78-.09-5.77-.17-5.74zM85.78 100H14.22a2.61 2.61 0 0 1-2.61-2.61V69.64h76.78v27.75a2.61 2.61 0 0 1-2.61 2.61z"/>
    <g>
        <path class="cls-4"
              d="M32.05 92.27v-13.6h4.41a15.49 15.49 0 0 1 3.26.21 3.53 3.53 0 0 1 2 1.33 4.17 4.17 0 0 1 .79 2.64A4.36 4.36 0 0 1 42 85a3.61 3.61 0 0 1-1.15 1.34 4.16 4.16 0 0 1-1.43.65 15.63 15.63 0 0 1-2.84.19H34.8v5.13zM34.8 81v3.86h1.5a7.24 7.24 0 0 0 2.17-.21 1.92 1.92 0 0 0 .86-.67 1.89 1.89 0 0 0 .31-1.06 1.76 1.76 0 0 0-.44-1.22 1.92 1.92 0 0 0-1.1-.61 13.69 13.69 0 0 0-2-.09zM44.71 78.67h5a9.94 9.94 0 0 1 2.59.26 4.58 4.58 0 0 1 2 1.25 6 6 0 0 1 1.3 2.21 9.89 9.89 0 0 1 .45 3.21 8.92 8.92 0 0 1-.42 2.9 6 6 0 0 1-1.46 2.4 4.9 4.9 0 0 1-1.86 1.1 8 8 0 0 1-2.43.29h-5.17zM47.46 81v9h2a7.25 7.25 0 0 0 1.66-.13 2.5 2.5 0 0 0 1.11-.57A2.91 2.91 0 0 0 53 88a9.08 9.08 0 0 0 .28-2.49 8.29 8.29 0 0 0-.28-2.45 3.26 3.26 0 0 0-.78-1.32A2.69 2.69 0 0 0 51 81.1a12.25 12.25 0 0 0-2.31-.1zM58.46 92.27v-13.6h9.33V81h-6.58v3.22h5.67v2.3h-5.67v5.78z"/>
    </g>
</svg>