<svg id="Ebene_1" data-name="Ebene 1" xmlns="http://www.w3.org/2000/svg" viewBox="0 0 100 100">
    <defs>
        <style>.cls-6{fill:#fff}</style>
    </defs>
    <path d="M65.58 0H13.76c-1.45 0-2.62 1.17-2.62 3.44v94.77c0 .62 1.17 1.79 2.62 1.79h71.56c1.44 0 2.61-1.17 2.61-1.79v-75c0-1.24-.17-1.64-.46-1.93L66.69.46A1.57 1.57 0 0 0 65.58 0z"
          fill="#eff2f5"/>
    <path fill="#738290" d="M66.5.27v21.16h21.16L66.5.27z"/>
    <circle cx="33.34" cy="25.77" r="8.16" fill="#f3d55b"/>
    <path fill="#49c770" opacity=".6" d="M11.14 69.64H87.93V50L70.07 33.04 51.32 53.57l-9.79-9.79-30.39 25.86z"/>
    <path d="M85.32 100H13.76a2.61 2.61 0 0 1-2.62-2.61V69.64h76.79v27.75a2.61 2.61 0 0 1-2.61 2.61z" fill="#39b54a"/>
    <g>
        <path class="cls-6"
              d="M29.46 93.27v-13.6h4.41a15.43 15.43 0 0 1 3.26.21 3.49 3.49 0 0 1 2 1.33 4.17 4.17 0 0 1 .79 2.64 4.48 4.48 0 0 1-.49 2.15 3.73 3.73 0 0 1-1.16 1.34 4.2 4.2 0 0 1-1.42.65 15.83 15.83 0 0 1-2.85.19h-1.79v5.13zM32.21 82v3.86h1.5a7.19 7.19 0 0 0 2.17-.21 1.87 1.87 0 0 0 .86-.67 1.81 1.81 0 0 0 .31-1.06 1.75 1.75 0 0 0-.43-1.22 2 2 0 0 0-1.11-.61 13.61 13.61 0 0 0-2-.09zM42.16 93.27v-13.6h2.67l5.57 9.08v-9.08H53v13.6h-2.8l-5.49-8.87v8.87zM62.18 88.27V86h5.92v5.4a7.63 7.63 0 0 1-2.5 1.47 9.13 9.13 0 0 1-3.31.63 7.37 7.37 0 0 1-3.72-.89 5.7 5.7 0 0 1-2.39-2.56 8.32 8.32 0 0 1-.8-3.63 7.86 7.86 0 0 1 .89-3.77 6 6 0 0 1 2.61-2.53 6.93 6.93 0 0 1 3.26-.68 6.46 6.46 0 0 1 4 1.06 4.85 4.85 0 0 1 1.84 2.94L65.2 84a2.83 2.83 0 0 0-1.08-1.58 3.25 3.25 0 0 0-2-.58 3.71 3.71 0 0 0-2.86 1.14 4.79 4.79 0 0 0-1.07 3.38 5.33 5.33 0 0 0 1.1 3.64 3.62 3.62 0 0 0 2.82 1.21 4.84 4.84 0 0 0 1.73-.34 6 6 0 0 0 1.49-.87v-1.73z"/>
    </g>
</svg>