<svg id="Ebene_1" data-name="Ebene 1" xmlns="http://www.w3.org/2000/svg" viewBox="0 0 100 100">
    <defs>
        <style>.cls-2,.cls-4{fill:#738290}.cls-4{opacity:.6}.cls-5{fill:#fff}</style>
    </defs>
    <path d="M66.28 0H14.45C13 0 11.84 1.17 11.84 3.44v94.77c0 .62 1.17 1.79 2.61 1.79H86c1.45 0 2.62-1.17 2.62-1.79v-75c0-1.24-.17-1.64-.46-1.93L67.39.46A1.61 1.61 0 0 0 66.28 0z"
          fill="#eff2f5"/>
    <path class="cls-2" d="M67.2.27v21.16h21.16L67.2.27z"/>
    <path d="M86 100H14.45a2.61 2.61 0 0 1-2.61-2.61V69.64h76.78v27.75A2.61 2.61 0 0 1 86 100z" fill="#f6712e"/>
    <path class="cls-2" d="M70.77 53.57H27.91V25h42.86zM31.48 50H67.2V28.57H31.48z"/>
    <path class="cls-4"
          d="M36.84 62.5a1.74 1.74 0 0 1-.92-.26 1.78 1.78 0 0 1-.61-2.45l5.35-8.92a1.79 1.79 0 1 1 3.07 1.83l-5.36 8.93a1.78 1.78 0 0 1-1.53.87zM61.84 62.5a1.77 1.77 0 0 1-1.53-.87L55 52.71a1.79 1.79 0 0 1 3-1.84l5.36 8.93a1.78 1.78 0 0 1-.61 2.45 1.82 1.82 0 0 1-.91.25zM49.34 28.57a1.79 1.79 0 0 1-1.79-1.78v-5.36a1.79 1.79 0 1 1 3.57 0v5.36a1.78 1.78 0 0 1-1.78 1.78z"/>
    <path class="cls-2" d="M31.48 28.57h35.71V50H31.48z"/>
    <g>
        <path class="cls-5"
              d="M33.57 92.27v-13.6H38a15.61 15.61 0 0 1 3.27.21 3.47 3.47 0 0 1 2 1.33 4.17 4.17 0 0 1 .73 2.64 4.48 4.48 0 0 1-.46 2.15 3.73 3.73 0 0 1-1.16 1.34A4.11 4.11 0 0 1 41 87a15.83 15.83 0 0 1-2.85.19h-1.83v5.13zM36.32 81v3.86h1.5a7.15 7.15 0 0 0 2.18-.24 1.87 1.87 0 0 0 .86-.67 1.81 1.81 0 0 0 .31-1.06 1.75 1.75 0 0 0-.43-1.22 1.91 1.91 0 0 0-1.11-.61 13.52 13.52 0 0 0-2-.09zM46.25 92.27v-13.6h4.4a15.61 15.61 0 0 1 3.27.21 3.53 3.53 0 0 1 2 1.33 4.23 4.23 0 0 1 .79 2.64 4.48 4.48 0 0 1-.5 2.15 3.71 3.71 0 0 1-1.15 1.34 4.24 4.24 0 0 1-1.43.65 15.68 15.68 0 0 1-2.85.19H49v5.13zM49 81v3.86h1.5a7.24 7.24 0 0 0 2.17-.21 1.84 1.84 0 0 0 .85-.67 1.81 1.81 0 0 0 .31-1.06 1.75 1.75 0 0 0-.43-1.22 1.92 1.92 0 0 0-1.1-.61 13.69 13.69 0 0 0-2-.09zM62 92.27V81h-4v-2.3h10.8V81h-4v11.3z"/>
    </g>
</svg>