<svg id="Ebene_1" data-name="Ebene 1" xmlns="http://www.w3.org/2000/svg" viewBox="0 0 100 100">
    <defs>
        <style>.cls-5{fill:#fff}</style>
    </defs>
    <path d="M65.51 0H13.68c-1.44 0-2.61 1.17-2.61 3.44v94.77c0 .62 1.17 1.79 2.61 1.79h71.56c1.45 0 2.62-1.17 2.62-1.79v-75c0-1.24-.17-1.64-.46-1.93L66.62.46A1.59 1.59 0 0 0 65.51 0z"
          fill="#eff2f5"/>
    <path fill="#738290" d="M66.43.27v21.16h21.16L66.43.27z"/>
    <path d="M85.24 100H13.68a2.61 2.61 0 0 1-2.61-2.61V69.64h76.79v27.75a2.61 2.61 0 0 1-2.62 2.61z" fill="#39b54a"/>
    <path d="M41.43 28.57v-7.14H20v39.28h58.93V28.57zM23.57 25h14.29v3.57H23.57zm0 7.14h14.29v3.57H23.57zm0 7.15h14.29v3.57H23.57zm0 7.14h14.29V50H23.57zm14.29 10.71H23.57v-3.57h14.29zm37.5 0H41.43v-3.57h33.93zm0-7.14H41.43v-3.57h33.93zm0-7.14H41.43v-3.57h33.93zm-33.93-7.15v-3.57h33.93v3.57z"
          opacity=".6" fill="#738290"/>
    <g>
        <path class="cls-5"
              d="M31.19 92.27l4.65-7.1-4.21-6.5h3.21L37.56 83l2.68-4.37h3.18l-4.23 6.61 4.65 7h-3.32l-3-4.7-3 4.7zM45.32 92.27V78.78h2.75V90h6.83v2.29zM56.16 87.85l2.67-.26a3.27 3.27 0 0 0 1 2 3 3 0 0 0 2 .63 3 3 0 0 0 2-.56 1.65 1.65 0 0 0 .67-1.31 1.22 1.22 0 0 0-.28-.82 2.27 2.27 0 0 0-1-.59c-.32-.11-1.06-.31-2.2-.6A7.48 7.48 0 0 1 57.9 85a3.56 3.56 0 0 1-1.25-2.74 3.43 3.43 0 0 1 .59-1.94 3.73 3.73 0 0 1 1.7-1.38 6.86 6.86 0 0 1 2.67-.47 5.76 5.76 0 0 1 3.86 1.12 4 4 0 0 1 1.36 3l-2.75.12a2.34 2.34 0 0 0-.76-1.51 2.78 2.78 0 0 0-1.74-.46 3.19 3.19 0 0 0-1.87.49 1 1 0 0 0-.44.85 1 1 0 0 0 .41.82 7.17 7.17 0 0 0 2.53.91 13.45 13.45 0 0 1 3 1 3.85 3.85 0 0 1 1.5 1.38 4.26 4.26 0 0 1-.1 4.36A3.94 3.94 0 0 1 64.73 92a7.73 7.73 0 0 1-3 .49 5.86 5.86 0 0 1-4-1.19 5.18 5.18 0 0 1-1.57-3.45z"/>
    </g>
</svg>