<svg id="Ebene_1" data-name="Ebene 1" xmlns="http://www.w3.org/2000/svg" viewBox="0 0 100 100">
    <defs>
        <style>.cls-2{fill:#738290}.cls-4{fill:#fff}</style>
    </defs>
    <path d="M66.7 0H15c-1.44 0-2.61 1.17-2.61 3.43V98c0 .61 1.17 1.78 2.61 1.78h71.39C87.83 99.79 89 98.62 89 98V23.13c0-1.24-.17-1.64-.46-1.94L67.81.46A1.61 1.61 0 0 0 66.7 0z"
          fill="#eff2f5"/>
    <path class="cls-2" d="M67.62.27v21.11h21.11L67.62.27z"/>
    <path d="M86.39 99.79H15a2.61 2.61 0 0 1-2.61-2.61V69.5H89v27.68a2.61 2.61 0 0 1-2.61 2.61z" fill="#556080"/>
    <path class="cls-2"
          d="M51.58 42.77V39.2h3.56v-3.56h-3.56v-3.56h3.56v-3.57h-3.56V25h3.56v-3.62h-3.56v-3.56h3.56v-3.56h-3.56v-3.57H48v3.57h-3.55v3.56H48v3.56h-3.55V25H48v3.56h-3.55v3.57H48v3.56h-3.55v3.51H48v3.57h-7.11v8.91a8.91 8.91 0 0 0 17.82 0v-8.91zm3.56 8.91a5.35 5.35 0 0 1-10.69 0v-5.35h10.69z"/>
    <path class="cls-2" d="M48 53.46h3.57a1.78 1.78 0 0 0 0-3.56H48a1.78 1.78 0 0 0 0 3.56z"/>
    <g>
        <path class="cls-4"
              d="M35.26 93.27v-2.48L42.41 82h-6.34v-2.3H46v2.1L38.58 91h7.73v2.29zM48 93.27v-13.6h2.75v13.6zM53.33 93.27v-13.6h4.4a15.61 15.61 0 0 1 3.27.21 3.53 3.53 0 0 1 2 1.33 4.23 4.23 0 0 1 .79 2.64 4.48 4.48 0 0 1-.5 2.15 3.71 3.71 0 0 1-1.15 1.34 4.16 4.16 0 0 1-1.43.65 15.68 15.68 0 0 1-2.85.19h-1.79v5.13zM56.07 82v3.86h1.51a7.24 7.24 0 0 0 2.17-.21 1.92 1.92 0 0 0 .86-.67 1.89 1.89 0 0 0 .31-1.06 1.76 1.76 0 0 0-.44-1.22 1.92 1.92 0 0 0-1.1-.61 13.69 13.69 0 0 0-2-.09z"/>
    </g>
</svg>